# Blender v2.91.2 OBJ File: 'CGMidterm.blend'
# www.blender.org
mtllib Grass.mtl
o Grass_Mesh.032
v -0.519781 -0.180610 -4.633094
v -0.457535 -0.184002 -4.631759
v -0.513564 -0.174522 -4.697761
v -0.451318 -0.177914 -4.696426
v -0.388888 2.052782 -4.421774
v -0.372432 2.051907 -4.420842
v -0.387845 2.054503 -4.438581
v -0.371389 2.053627 -4.437649
v 13.260365 -1.555096 10.952322
v 13.233168 -1.554937 11.005622
v 13.313320 -1.544924 10.984150
v 13.286125 -1.544765 11.037451
v 13.068752 -0.188908 10.872344
v 13.061068 -0.188908 10.886195
v 13.082760 -0.186200 10.880117
v 13.075073 -0.186201 10.893967
v 13.272549 -1.550790 10.967664
v 13.245352 -1.551137 11.020963
v 13.326233 -1.551118 10.999897
v 13.299036 -1.551465 11.053196
v 13.277058 1.000523 10.996525
v 13.269373 1.000523 11.010376
v 13.291262 1.000563 11.004408
v 13.283575 1.000563 11.018258
v -0.609789 -0.190807 4.998505
v -0.571028 -0.190676 5.047343
v -0.556697 -0.180255 4.962071
v -0.517935 -0.180124 5.010911
v -0.802464 1.482501 5.170601
v -0.792661 1.482500 5.183880
v -0.789037 1.485321 5.160688
v -0.779233 1.485321 5.173967
v -0.517350 -0.180610 5.025090
v -0.470341 -0.184002 4.984267
v -0.556183 -0.174522 4.973008
v -0.509175 -0.177914 4.932185
v -0.278435 2.052782 5.093708
v -0.265617 2.051908 5.083346
v -0.288952 2.054503 5.080556
v -0.276135 2.053628 5.070193
v -0.593810 -0.183990 4.935984
v -0.555054 -0.184351 4.984826
v -0.540026 -0.184332 4.899040
v -0.501271 -0.184693 4.947883
v -0.564500 2.474545 4.944196
v -0.554697 2.474545 4.957474
v -0.550883 2.474586 4.934142
v -0.541080 2.474586 4.947421
v -6.020559 -1.961857 -1.599138
v -6.040807 -1.961616 -1.540165
v -5.961272 -1.951154 -1.574079
v -5.981521 -1.950913 -1.515106
v -6.143286 -1.087379 -1.620371
v -6.149183 -1.087379 -1.604955
v -6.127697 -1.084558 -1.614408
v -6.133594 -1.084558 -1.598992
v -5.837316 -1.966375 -1.580181
v -5.857553 -1.966492 -1.521205
v -5.777202 -1.966382 -1.554805
v -5.797441 -1.966498 -1.495829
v -5.824358 -1.083700 -1.549511
v -5.830255 -1.083700 -1.534095
v -5.808548 -1.083658 -1.543463
v -5.814445 -1.083658 -1.528047
v -9.363838 -1.688900 6.242224
v -9.417667 -1.689017 6.273696
v -9.334862 -1.688907 6.300687
v -9.388686 -1.689023 6.332155
v -9.374041 -0.806225 6.273918
v -9.388571 -0.806225 6.281749
v -9.366011 -0.806183 6.288819
v -9.380541 -0.806183 6.296650
v -9.490294 -1.684382 6.108258
v -9.544127 -1.684141 6.139720
v -9.461735 -1.673679 6.165942
v -9.515568 -1.673437 6.197403
v -9.569413 -0.809904 6.012067
v -9.583944 -0.809904 6.019898
v -9.561497 -0.807083 6.026759
v -9.576027 -0.807083 6.034591
v -7.918081 -2.080447 2.445308
v -7.892584 -2.080794 2.391174
v -7.972760 -2.080775 2.414792
v -7.947264 -2.081122 2.360658
v -7.923502 0.470866 2.416604
v -7.916258 0.470866 2.402518
v -7.937948 0.470906 2.409175
v -7.930705 0.470906 2.395089
v -7.905416 -2.084753 2.460256
v -7.879921 -2.084594 2.406122
v -7.959355 -2.074581 2.430120
v -7.933860 -2.074422 2.375986
v -7.711368 -0.718564 2.534123
v -7.704123 -0.718564 2.520037
v -7.725612 -0.715857 2.526799
v -7.718369 -0.715857 2.512712
v -12.644859 -1.549594 -10.987539
v -12.697515 -1.549710 -10.954145
v -12.613789 -1.549600 -10.930164
v -12.666443 -1.549717 -10.896770
v -12.653912 -0.666918 -10.955500
v -12.668150 -0.666919 -10.947149
v -12.645348 -0.666877 -10.940898
v -12.659584 -0.666877 -10.932547
v -12.776073 -1.545075 -11.116851
v -12.828732 -1.544834 -11.083465
v -12.745451 -1.534372 -11.060239
v -12.798109 -1.534131 -11.026852
v -12.858618 -0.670597 -11.210121
v -12.872856 -0.670597 -11.201772
v -12.850174 -0.667776 -11.195724
v -12.864412 -0.667776 -11.187374
v 7.521358 -0.025714 -0.726550
v 7.476616 -0.025830 -0.683124
v 7.563473 -0.025721 -0.676712
v 7.518732 -0.025837 -0.633286
v 7.519030 0.856961 -0.693337
v 7.506793 0.856961 -0.682261
v 7.530388 0.857003 -0.680788
v 7.518153 0.857003 -0.669711
v 7.366543 -0.021196 -0.826401
v 7.321793 -0.020954 -0.782983
v 7.408062 -0.010493 -0.777219
v 7.363314 -0.010251 -0.733800
v 7.266720 0.853283 -0.900888
v 7.254483 0.853283 -0.889812
v 7.277922 0.856103 -0.888515
v 7.265686 0.856104 -0.877438
v -0.516566 -0.183990 -4.750465
v -0.520666 -0.184351 -4.688249
v -0.451907 -0.184332 -4.741704
v -0.456007 -0.184693 -4.679487
v -0.500371 2.474544 -4.724693
v -0.502028 2.474544 -4.708271
v -0.483529 2.474585 -4.722993
v -0.485187 2.474586 -4.706571
v -0.570402 -0.190807 -4.714883
v -0.574494 -0.190676 -4.652666
v -0.506598 -0.180255 -4.706209
v -0.510690 -0.180124 -4.643991
v -0.828737 1.482500 -4.716822
v -0.830395 1.482501 -4.700399
v -0.812131 1.485321 -4.715145
v -0.813789 1.485321 -4.698723
vt 0.244240 0.034600
vt 0.240389 0.037271
vt 0.242633 0.040821
vt 0.246483 0.038149
vt 0.270714 0.099076
vt 0.271344 0.099995
vt 0.270324 0.100660
vt 0.269694 0.099740
vt 0.244240 0.034600
vt 0.240389 0.037271
vt 0.242633 0.040821
vt 0.246483 0.038149
vt 0.270714 0.099076
vt 0.271344 0.099995
vt 0.270324 0.100660
vt 0.269694 0.099740
vt 0.231539 0.037399
vt 0.227639 0.039782
vt 0.229884 0.043320
vt 0.233785 0.040937
vt 0.231313 0.118054
vt 0.231943 0.118974
vt 0.230908 0.119564
vt 0.230278 0.118644
vt 0.244240 0.034600
vt 0.240389 0.037271
vt 0.242633 0.040821
vt 0.246483 0.038149
vt 0.270714 0.099076
vt 0.271344 0.099995
vt 0.270324 0.100660
vt 0.269694 0.099740
vt 0.244240 0.034600
vt 0.240389 0.037271
vt 0.242633 0.040821
vt 0.246483 0.038149
vt 0.270714 0.099076
vt 0.271344 0.099995
vt 0.270324 0.100660
vt 0.269694 0.099740
vt 0.231539 0.037399
vt 0.227639 0.039782
vt 0.229884 0.043320
vt 0.233785 0.040937
vt 0.231313 0.118054
vt 0.231943 0.118974
vt 0.230908 0.119564
vt 0.230278 0.118644
vt 0.244240 0.034600
vt 0.240389 0.037271
vt 0.242633 0.040821
vt 0.246483 0.038149
vt 0.270714 0.099076
vt 0.271344 0.099995
vt 0.270324 0.100660
vt 0.269694 0.099740
vt 0.231539 0.037399
vt 0.227639 0.039782
vt 0.229884 0.043320
vt 0.233785 0.040937
vt 0.231313 0.118054
vt 0.231943 0.118974
vt 0.230908 0.119564
vt 0.230278 0.118644
vt 0.231539 0.037399
vt 0.227639 0.039782
vt 0.229884 0.043320
vt 0.233785 0.040937
vt 0.231313 0.118054
vt 0.231943 0.118974
vt 0.230908 0.119564
vt 0.230278 0.118644
vt 0.244240 0.034600
vt 0.240389 0.037271
vt 0.242633 0.040821
vt 0.246483 0.038149
vt 0.270714 0.099076
vt 0.271344 0.099995
vt 0.270324 0.100660
vt 0.269694 0.099740
vt 0.231539 0.037399
vt 0.227639 0.039782
vt 0.229884 0.043320
vt 0.233785 0.040937
vt 0.231313 0.118054
vt 0.231943 0.118974
vt 0.230908 0.119564
vt 0.230278 0.118644
vt 0.244240 0.034600
vt 0.240389 0.037271
vt 0.242633 0.040821
vt 0.246483 0.038149
vt 0.270714 0.099076
vt 0.271344 0.099995
vt 0.270324 0.100660
vt 0.269694 0.099740
vt 0.231539 0.037399
vt 0.227639 0.039782
vt 0.229884 0.043320
vt 0.233785 0.040937
vt 0.231313 0.118054
vt 0.231943 0.118974
vt 0.230908 0.119564
vt 0.230278 0.118644
vt 0.244240 0.034600
vt 0.240389 0.037271
vt 0.242633 0.040821
vt 0.246483 0.038149
vt 0.270714 0.099076
vt 0.271344 0.099995
vt 0.270324 0.100660
vt 0.269694 0.099740
vt 0.231539 0.037399
vt 0.227639 0.039782
vt 0.229884 0.043320
vt 0.233785 0.040937
vt 0.231313 0.118054
vt 0.231943 0.118974
vt 0.230908 0.119564
vt 0.230278 0.118644
vt 0.244240 0.034600
vt 0.240389 0.037271
vt 0.242633 0.040821
vt 0.246483 0.038149
vt 0.270714 0.099076
vt 0.271344 0.099995
vt 0.270324 0.100660
vt 0.269694 0.099740
vt 0.231539 0.037399
vt 0.227639 0.039782
vt 0.229884 0.043320
vt 0.233785 0.040937
vt 0.231313 0.118054
vt 0.231943 0.118974
vt 0.230908 0.119564
vt 0.230278 0.118644
vt 0.244240 0.034600
vt 0.240389 0.037271
vt 0.242633 0.040821
vt 0.246483 0.038149
vt 0.270714 0.099076
vt 0.271344 0.099995
vt 0.270324 0.100660
vt 0.269694 0.099740
vn -0.0520 -0.9938 -0.0986
vn 0.0469 0.9934 0.1046
vn -0.0337 -0.0924 0.9952
vn 0.9954 -0.0456 0.0843
vn 0.0347 0.1137 -0.9929
vn -0.9944 0.0659 -0.0823
vn 0.1437 -0.9867 0.0763
vn -0.1457 0.9860 -0.0809
vn -0.8775 -0.1501 -0.4555
vn -0.5106 0.0112 0.8598
vn 0.8726 0.1831 0.4528
vn 0.5061 0.0202 -0.8623
vn -0.0017 -1.0000 -0.0074
vn -0.0022 1.0000 -0.0012
vn -0.8874 0.0066 -0.4609
vn -0.5087 0.0085 0.8609
vn 0.8873 0.0115 0.4610
vn 0.5088 0.0087 -0.8609
vn 0.1282 -0.9868 -0.0991
vn -0.1340 0.9860 0.0990
vn -0.7784 -0.1525 0.6089
vn 0.5704 0.0088 0.8213
vn 0.7746 0.1806 -0.6061
vn -0.5740 0.0178 -0.8187
vn -0.1047 -0.9938 -0.0381
vn 0.1050 0.9934 0.0460
vn 0.6435 -0.0924 0.7598
vn 0.7940 -0.0456 -0.6062
vn -0.6412 0.1137 -0.7589
vn -0.7920 0.0659 0.6070
vn -0.0074 -1.0000 -0.0015
vn -0.0020 1.0000 0.0015
vn -0.7878 0.0066 0.6159
vn 0.5720 0.0085 0.8202
vn 0.7878 0.0115 -0.6158
vn -0.5719 0.0087 -0.8203
vn 0.1540 -0.9864 0.0569
vn -0.1557 0.9860 -0.0595
vn -0.9343 -0.1396 -0.3279
vn -0.3859 0.0210 0.9223
vn 0.9258 0.1934 0.3248
vn 0.3779 0.0300 -0.9253
vn 0.0006 -1.0000 -0.0018
vn -0.0023 1.0000 -0.0009
vn -0.9432 0.0248 -0.3313
vn -0.3823 0.0258 0.9237
vn 0.9430 0.0297 0.3313
vn 0.3823 0.0260 -0.9237
vn 0.0016 -1.0000 -0.0009
vn -0.0012 1.0000 -0.0022
vn -0.4983 0.0248 -0.8666
vn -0.8925 0.0258 0.4503
vn 0.4982 0.0297 0.8666
vn 0.8925 0.0260 -0.4502
vn 0.0795 -0.9864 0.1436
vn -0.0791 0.9860 -0.1467
vn -0.4938 -0.1396 -0.8583
vn -0.8944 0.0210 0.4468
vn 0.4894 0.1934 0.8503
vn 0.8903 0.0301 -0.4543
vn 0.0019 -1.0000 0.0073
vn 0.0022 1.0000 0.0011
vn 0.9015 0.0066 0.4326
vn 0.4812 0.0085 -0.8766
vn -0.9015 0.0115 -0.4327
vn -0.4812 0.0087 0.8766
vn -0.1460 -0.9867 -0.0717
vn 0.1482 0.9860 0.0762
vn 0.8915 -0.1501 0.4275
vn 0.4831 0.0112 -0.8755
vn -0.8865 0.1831 -0.4250
vn -0.4785 0.0202 0.8779
vn 0.0016 -1.0000 -0.0010
vn -0.0012 1.0000 -0.0021
vn -0.5293 0.0248 -0.8481
vn -0.8757 0.0258 0.4822
vn 0.5292 0.0297 0.8480
vn 0.8757 0.0260 -0.4822
vn 0.0847 -0.9864 0.1407
vn -0.0843 0.9860 -0.1438
vn -0.5245 -0.1396 -0.8399
vn -0.8777 0.0210 0.4788
vn 0.5198 0.1934 0.8321
vn 0.8733 0.0301 -0.4862
vn 0.0014 -1.0000 -0.0013
vn -0.0016 1.0000 -0.0018
vn -0.6910 0.0248 -0.7224
vn -0.7590 0.0258 0.6506
vn 0.6909 0.0297 0.7223
vn 0.7590 0.0260 -0.6506
vn 0.1116 -0.9864 0.1205
vn -0.1118 0.9860 -0.1235
vn -0.6847 -0.1396 -0.7154
vn -0.7616 0.0210 0.6477
vn 0.6785 0.1934 0.7087
vn 0.7559 0.0301 -0.6540
vn -0.0045 -1.0000 -0.0061
vn -0.0025 1.0000 -0.0002
vn -0.9973 0.0066 -0.0730
vn -0.1273 0.0085 0.9918
vn 0.9973 0.0115 0.0731
vn 0.1273 0.0087 -0.9918
vn 0.1615 -0.9868 0.0127
vn -0.1658 0.9860 -0.0168
vn -0.9857 -0.1525 -0.0718
vn -0.1291 0.0088 0.9916
vn 0.9810 0.1806 0.0714
vn 0.1247 0.0178 -0.9920
usemtl 02_-_Default
s 1
f 1/1/1 3/2/1 4/3/1 2/4/1
f 5/5/2 6/6/2 8/7/2 7/8/2
f 1/1/3 2/4/3 6/6/3 5/5/3
f 2/4/4 4/3/4 8/7/4 6/6/4
f 4/3/5 3/2/5 7/8/5 8/7/5
f 3/2/6 1/1/6 5/5/6 7/8/6
f 9/9/7 11/10/7 12/11/7 10/12/7
f 13/13/8 14/14/8 16/15/8 15/16/8
f 9/9/9 10/12/9 14/14/9 13/13/9
f 10/12/10 12/11/10 16/15/10 14/14/10
f 12/11/11 11/10/11 15/16/11 16/15/11
f 11/10/12 9/9/12 13/13/12 15/16/12
f 17/17/13 19/18/13 20/19/13 18/20/13
f 21/21/14 22/22/14 24/23/14 23/24/14
f 17/17/15 18/20/15 22/22/15 21/21/15
f 18/20/16 20/19/16 24/23/16 22/22/16
f 20/19/17 19/18/17 23/24/17 24/23/17
f 19/18/18 17/17/18 21/21/18 23/24/18
f 25/25/19 27/26/19 28/27/19 26/28/19
f 29/29/20 30/30/20 32/31/20 31/32/20
f 25/25/21 26/28/21 30/30/21 29/29/21
f 26/28/22 28/27/22 32/31/22 30/30/22
f 28/27/23 27/26/23 31/32/23 32/31/23
f 27/26/24 25/25/24 29/29/24 31/32/24
f 33/33/25 35/34/25 36/35/25 34/36/25
f 37/37/26 38/38/26 40/39/26 39/40/26
f 33/33/27 34/36/27 38/38/27 37/37/27
f 34/36/28 36/35/28 40/39/28 38/38/28
f 36/35/29 35/34/29 39/40/29 40/39/29
f 35/34/30 33/33/30 37/37/30 39/40/30
f 41/41/31 43/42/31 44/43/31 42/44/31
f 45/45/32 46/46/32 48/47/32 47/48/32
f 41/41/33 42/44/33 46/46/33 45/45/33
f 42/44/34 44/43/34 48/47/34 46/46/34
f 44/43/35 43/42/35 47/48/35 48/47/35
f 43/42/36 41/41/36 45/45/36 47/48/36
f 49/49/37 51/50/37 52/51/37 50/52/37
f 53/53/38 54/54/38 56/55/38 55/56/38
f 49/49/39 50/52/39 54/54/39 53/53/39
f 50/52/40 52/51/40 56/55/40 54/54/40
f 52/51/41 51/50/41 55/56/41 56/55/41
f 51/50/42 49/49/42 53/53/42 55/56/42
f 57/57/43 59/58/43 60/59/43 58/60/43
f 61/61/44 62/62/44 64/63/44 63/64/44
f 57/57/45 58/60/45 62/62/45 61/61/45
f 58/60/46 60/59/46 64/63/46 62/62/46
f 60/59/47 59/58/47 63/64/47 64/63/47
f 59/58/48 57/57/48 61/61/48 63/64/48
f 65/65/49 67/66/49 68/67/49 66/68/49
f 69/69/50 70/70/50 72/71/50 71/72/50
f 65/65/51 66/68/51 70/70/51 69/69/51
f 66/68/52 68/67/52 72/71/52 70/70/52
f 68/67/53 67/66/53 71/72/53 72/71/53
f 67/66/54 65/65/54 69/69/54 71/72/54
f 73/73/55 75/74/55 76/75/55 74/76/55
f 77/77/56 78/78/56 80/79/56 79/80/56
f 73/73/57 74/76/57 78/78/57 77/77/57
f 74/76/58 76/75/58 80/79/58 78/78/58
f 76/75/59 75/74/59 79/80/59 80/79/59
f 75/74/60 73/73/60 77/77/60 79/80/60
f 81/81/61 83/82/61 84/83/61 82/84/61
f 85/85/62 86/86/62 88/87/62 87/88/62
f 81/81/63 82/84/63 86/86/63 85/85/63
f 82/84/64 84/83/64 88/87/64 86/86/64
f 84/83/65 83/82/65 87/88/65 88/87/65
f 83/82/66 81/81/66 85/85/66 87/88/66
f 89/89/67 91/90/67 92/91/67 90/92/67
f 93/93/68 94/94/68 96/95/68 95/96/68
f 89/89/69 90/92/69 94/94/69 93/93/69
f 90/92/70 92/91/70 96/95/70 94/94/70
f 92/91/71 91/90/71 95/96/71 96/95/71
f 91/90/72 89/89/72 93/93/72 95/96/72
f 97/97/73 99/98/73 100/99/73 98/100/73
f 101/101/74 102/102/74 104/103/74 103/104/74
f 97/97/75 98/100/75 102/102/75 101/101/75
f 98/100/76 100/99/76 104/103/76 102/102/76
f 100/99/77 99/98/77 103/104/77 104/103/77
f 99/98/78 97/97/78 101/101/78 103/104/78
f 105/105/79 107/106/79 108/107/79 106/108/79
f 109/109/80 110/110/80 112/111/80 111/112/80
f 105/105/81 106/108/81 110/110/81 109/109/81
f 106/108/82 108/107/82 112/111/82 110/110/82
f 108/107/83 107/106/83 111/112/83 112/111/83
f 107/106/84 105/105/84 109/109/84 111/112/84
f 113/113/85 115/114/85 116/115/85 114/116/85
f 117/117/86 118/118/86 120/119/86 119/120/86
f 113/113/87 114/116/87 118/118/87 117/117/87
f 114/116/88 116/115/88 120/119/88 118/118/88
f 116/115/89 115/114/89 119/120/89 120/119/89
f 115/114/90 113/113/90 117/117/90 119/120/90
f 121/121/91 123/122/91 124/123/91 122/124/91
f 125/125/92 126/126/92 128/127/92 127/128/92
f 121/121/93 122/124/93 126/126/93 125/125/93
f 122/124/94 124/123/94 128/127/94 126/126/94
f 124/123/95 123/122/95 127/128/95 128/127/95
f 123/122/96 121/121/96 125/125/96 127/128/96
f 129/129/97 131/130/97 132/131/97 130/132/97
f 133/133/98 134/134/98 136/135/98 135/136/98
f 129/129/99 130/132/99 134/134/99 133/133/99
f 130/132/100 132/131/100 136/135/100 134/134/100
f 132/131/101 131/130/101 135/136/101 136/135/101
f 131/130/102 129/129/102 133/133/102 135/136/102
f 137/137/103 139/138/103 140/139/103 138/140/103
f 141/141/104 142/142/104 144/143/104 143/144/104
f 137/137/105 138/140/105 142/142/105 141/141/105
f 138/140/106 140/139/106 144/143/106 142/142/106
f 140/139/107 139/138/107 143/144/107 144/143/107
f 139/138/108 137/137/108 141/141/108 143/144/108
