# Blender v2.91.2 OBJ File: 'CGMidterm.blend'
# www.blender.org
mtllib Ground.mtl
o Ground_Mesh.053
v -13.708428 -3.111880 11.939366
v -9.741179 -3.111880 11.939366
v -5.773927 -3.111880 11.939366
v -1.806676 -3.111880 11.939366
v 2.160575 -3.111880 11.939366
v 6.127826 -3.111880 11.939366
v 10.095078 -3.111880 11.939366
v 14.062327 -3.111880 11.939366
v -13.708428 -3.111880 8.524030
v -9.741179 -4.600327 8.524030
v -5.773927 -4.600327 8.524030
v -1.806676 -4.600327 8.524030
v 2.160575 -4.600327 8.524030
v 6.127826 -4.600327 8.524030
v 10.095078 -4.600327 8.524030
v 14.062327 -3.111880 8.524030
v -13.708428 -3.111881 5.108693
v -9.741179 -4.600327 5.108693
v -5.773927 -4.600327 5.108693
v -1.806676 -4.600327 5.108693
v 2.160575 -4.600327 5.108693
v 6.127826 -4.600327 5.108693
v 10.095078 -4.600327 5.108693
v 14.062327 -3.111881 5.108693
v -13.708428 -3.111881 1.693358
v -9.741179 -4.600327 1.693358
v -5.773927 -4.600327 1.693358
v -1.806676 -4.600327 1.693358
v 2.160575 -4.600327 1.693358
v 6.127826 -4.600327 1.693358
v 10.095078 -4.600327 1.693358
v 14.062327 -3.111881 1.693358
v -13.708428 -3.111881 -1.721978
v -9.741179 -4.600327 -1.721978
v -5.773927 -4.600327 -1.721978
v -1.806676 -4.600327 -1.721978
v 2.160575 -4.600327 -1.721978
v 6.127826 -4.600327 -1.721978
v 10.095078 -4.600327 -1.721978
v 14.062327 -3.111881 -1.721978
v -13.708428 -3.111881 -5.137314
v -9.741179 -4.600327 -5.137314
v -5.773927 -4.600327 -5.137314
v -1.806676 -4.600327 -5.137314
v 2.160575 -4.600327 -5.137314
v 6.127826 -4.600327 -5.137314
v 10.095078 -4.600327 -5.137314
v 14.062327 -3.111881 -5.137314
v -13.708428 -3.111881 -8.552649
v -9.741179 -4.600327 -8.552649
v -5.773927 -4.600327 -8.552649
v -1.806676 -4.600327 -8.552649
v 2.160575 -4.600327 -8.552649
v 6.127826 -4.600327 -8.552649
v 10.095078 -4.600327 -8.552649
v 14.062327 -3.111881 -8.552649
v -13.708428 -3.111881 -11.967986
v -9.741179 -3.111881 -11.967986
v -5.773927 -3.111881 -11.967986
v -1.806676 -3.111881 -11.967986
v 2.160575 -3.111881 -11.967986
v 6.127826 -3.111881 -11.967986
v 10.095078 -3.111881 -11.967986
v 14.062327 -3.111881 -11.967986
v -13.708428 -1.481170 11.939366
v -9.741179 -1.481170 11.939366
v -5.773927 -1.481170 11.939366
v -1.806676 -1.481170 11.939366
v 2.160575 -1.193699 12.034515
v 6.127826 -1.193699 12.034515
v 10.095078 -1.481170 11.939366
v 14.062327 -1.481170 11.939366
v -13.708428 -1.481170 8.524030
v -9.741179 -0.920616 8.524030
v -5.773927 -0.920616 8.524030
v -1.806676 -0.920616 8.524030
v 2.160575 -0.319242 8.428880
v 6.127826 -0.319242 8.428880
v 10.095078 -0.031771 8.524030
v 14.062327 -1.481170 8.524030
v -13.708428 -1.481171 5.108693
v -9.741179 -1.861743 5.108693
v -5.773927 -1.861743 5.108693
v -1.806676 -0.367395 4.989897
v 2.160575 0.446753 5.157412
v 6.127826 0.799431 5.108693
v 10.095078 0.799431 5.108693
v 14.062327 -1.481171 5.108693
v -13.630013 -1.087373 1.693358
v -9.819593 -2.255541 1.693358
v -5.773927 -1.861744 1.693358
v -1.806676 0.320908 1.644639
v 2.160575 1.135056 1.812154
v 6.127826 0.316548 1.687607
v 10.095078 0.316548 1.687607
v 14.062327 -1.481171 1.693358
v -13.630013 -1.087373 -1.721978
v -9.819593 -2.255542 -1.721978
v -5.773927 -1.861744 -1.721978
v -1.806676 -0.031771 -1.721978
v 2.160575 0.799431 -1.721978
v 6.127826 0.036489 -1.716227
v 10.095078 0.036489 -1.716227
v 14.062327 -1.481171 -1.721978
v -13.708428 -1.481171 -5.137314
v -9.741179 -1.138639 -5.151289
v -5.773927 -1.138639 -5.151289
v -1.806676 -0.031772 -5.137314
v 2.160575 1.234557 -5.193681
v 6.127826 1.234557 -5.193681
v 10.095078 0.799431 -5.137314
v 14.062327 -1.481171 -5.137314
v -13.708428 -1.481171 -8.552649
v -9.741179 -0.702595 -8.538675
v -5.773927 -0.702595 -8.538675
v -1.806676 -0.920617 -8.552649
v 2.160575 0.364305 -8.496283
v 6.127826 0.364305 -8.496283
v 10.095078 0.799431 -8.552649
v 14.062327 -1.481171 -8.552649
v -13.708428 -1.481171 -11.967986
v -9.741179 -1.481171 -11.967986
v -5.773927 -1.481171 -11.967986
v -1.806676 -1.481171 -11.967986
v 2.160575 -1.481171 -11.967986
v 6.127826 -1.481171 -11.967986
v 10.095078 -1.481171 -11.967986
v 14.062327 -1.481171 -11.967986
v -13.708428 -4.600326 11.939366
v -13.708428 -4.600327 8.524030
v -13.708428 -4.600327 5.108693
v -13.708428 -4.600327 1.693358
v -13.708428 -4.600327 -1.721978
v -13.708428 -4.600327 -5.137314
v -13.708428 -4.600327 -8.552649
v -13.708428 -4.600327 -11.967986
v -9.741179 -4.600327 -11.967986
v -5.773927 -4.600327 -11.967986
v -1.806676 -4.600327 -11.967986
v 2.160575 -4.600327 -11.967986
v 6.127826 -4.600327 -11.967986
v 10.095078 -4.600327 -11.967986
v 14.062327 -4.600327 -11.967986
v 14.062327 -4.600327 -8.552649
v 14.062327 -4.600327 -5.137314
v 14.062327 -4.600327 -1.721978
v 14.062327 -4.600327 1.693358
v 14.062327 -4.600327 5.108693
v 14.062327 -4.600327 8.524030
v 14.062327 -4.600326 11.939366
v 10.095078 -4.600326 11.939366
v 6.127826 -4.600326 11.939366
v 2.160575 -4.600326 11.939366
v -1.806676 -4.600326 11.939366
v -5.773927 -4.600326 11.939366
v -9.741179 -4.600326 11.939366
vt 0.973735 0.019311
vt 0.973735 0.077168
vt 0.915877 0.077168
vt 0.915877 0.019311
vt 0.858020 0.077168
vt 0.858020 0.019311
vt 0.800163 0.077168
vt 0.800163 0.019311
vt 0.742306 0.077168
vt 0.742306 0.019311
vt 0.684449 0.077168
vt 0.684449 0.019311
vt 0.626592 0.077168
vt 0.626592 0.019311
vt 0.568735 0.077168
vt 0.568735 0.019311
vt 0.973735 0.135025
vt 0.915877 0.135025
vt 0.858020 0.135025
vt 0.800163 0.135025
vt 0.742306 0.135025
vt 0.684449 0.135025
vt 0.626592 0.135025
vt 0.568735 0.135025
vt 0.973735 0.192882
vt 0.915877 0.192882
vt 0.858020 0.192882
vt 0.800163 0.192882
vt 0.742306 0.192882
vt 0.684449 0.192882
vt 0.626592 0.192882
vt 0.568735 0.192882
vt 0.973735 0.250739
vt 0.915877 0.250739
vt 0.858020 0.250739
vt 0.800163 0.250739
vt 0.742306 0.250739
vt 0.684449 0.250739
vt 0.626592 0.250739
vt 0.568735 0.250739
vt 0.973735 0.308596
vt 0.915877 0.308596
vt 0.858020 0.308596
vt 0.800163 0.308596
vt 0.742306 0.308596
vt 0.684449 0.308596
vt 0.626592 0.308596
vt 0.568735 0.308596
vt 0.973735 0.366454
vt 0.915877 0.366454
vt 0.858020 0.366454
vt 0.800163 0.366454
vt 0.742306 0.366454
vt 0.684449 0.366454
vt 0.626592 0.366454
vt 0.568735 0.366454
vt 0.973735 0.424311
vt 0.915877 0.424311
vt 0.858020 0.424311
vt 0.800163 0.424311
vt 0.742306 0.424311
vt 0.684449 0.424311
vt 0.626592 0.424311
vt 0.568735 0.424311
vt 0.555005 0.962207
vt 0.555739 0.895478
vt 0.613179 0.896127
vt 0.612451 0.962839
vt 0.556473 0.828749
vt 0.613913 0.829398
vt 0.557207 0.762020
vt 0.614646 0.762669
vt 0.556337 0.695282
vt 0.616974 0.695977
vt 0.557071 0.628553
vt 0.617708 0.629248
vt 0.559409 0.561833
vt 0.616839 0.562510
vt 0.560143 0.495104
vt 0.617589 0.495736
vt 0.670635 0.896730
vt 0.669897 0.963471
vt 0.671369 0.830001
vt 0.674084 0.763340
vt 0.671991 0.696606
vt 0.673541 0.629897
vt 0.674275 0.563168
vt 0.675035 0.496368
vt 0.728071 0.898668
vt 0.727353 0.962796
vt 0.728815 0.830633
vt 0.730344 0.763981
vt 0.728251 0.697247
vt 0.731089 0.630515
vt 0.731823 0.563786
vt 0.732480 0.497000
vt 0.785517 0.899300
vt 0.784798 0.963428
vt 0.786261 0.831265
vt 0.786974 0.764593
vt 0.787699 0.697890
vt 0.788345 0.631136
vt 0.789079 0.564407
vt 0.789927 0.497632
vt 0.843199 0.898651
vt 0.842234 0.965367
vt 0.843933 0.831922
vt 0.844420 0.765225
vt 0.846088 0.698546
vt 0.846822 0.631817
vt 0.846613 0.565064
vt 0.847372 0.498264
vt 0.900170 0.899292
vt 0.899680 0.965998
vt 0.900904 0.832563
vt 0.901876 0.765829
vt 0.901647 0.699130
vt 0.902381 0.632401
vt 0.904058 0.565696
vt 0.904818 0.498896
vt 0.957860 0.899902
vt 0.957126 0.966630
vt 0.958594 0.833173
vt 0.959328 0.766444
vt 0.960062 0.699715
vt 0.960796 0.632986
vt 0.961530 0.566257
vt 0.962264 0.499528
vt 0.555023 0.962156
vt 0.555757 0.895427
vt 0.556491 0.828698
vt 0.557225 0.761969
vt 0.557959 0.695240
vt 0.558693 0.628511
vt 0.559427 0.561782
vt 0.560161 0.495053
vt 0.617607 0.495685
vt 0.675053 0.496317
vt 0.732499 0.496949
vt 0.789945 0.497581
vt 0.847391 0.498213
vt 0.904837 0.498845
vt 0.962282 0.499477
vt 0.961548 0.566206
vt 0.960814 0.632935
vt 0.960080 0.699664
vt 0.959346 0.766393
vt 0.958612 0.833122
vt 0.957878 0.899850
vt 0.957144 0.966580
vt 0.899698 0.965948
vt 0.842252 0.965316
vt 0.784807 0.964684
vt 0.727361 0.964052
vt 0.669915 0.963420
vt 0.612469 0.962788
vt 0.973735 0.019311
vt 0.973735 0.077168
vt 0.973735 0.135025
vt 0.973735 0.192882
vt 0.973735 0.250739
vt 0.973735 0.308596
vt 0.973735 0.366454
vt 0.973735 0.424311
vt 0.915877 0.424311
vt 0.858020 0.424311
vt 0.800163 0.424311
vt 0.742306 0.424311
vt 0.684449 0.424311
vt 0.626592 0.424311
vt 0.568735 0.424311
vt 0.568735 0.366454
vt 0.568735 0.308596
vt 0.568735 0.250739
vt 0.568735 0.192882
vt 0.568735 0.135025
vt 0.568735 0.077168
vt 0.568735 0.019311
vt 0.626592 0.019311
vt 0.684449 0.019311
vt 0.742306 0.019311
vt 0.800163 0.019311
vt 0.858020 0.019311
vt 0.915877 0.019311
vn 0.0000 -1.0000 0.0000
vn 0.0000 0.9868 0.1620
vn -0.1399 0.9902 0.0000
vn 0.0000 0.9875 0.1574
vn -0.0759 0.9690 0.2350
vn -0.1442 0.9765 0.1603
vn 0.0000 0.9718 0.2357
vn 0.0759 0.9179 0.3895
vn -0.0759 0.9689 0.2355
vn -0.0759 0.9689 0.2356
vn 0.0000 1.0000 0.0000
vn 0.3188 0.8725 0.3703
vn -0.1350 0.9552 -0.2632
vn 0.0955 0.9954 -0.0000
vn 0.0000 0.9641 -0.2657
vn 0.0000 0.9880 0.1547
vn -0.3479 0.9038 -0.2491
vn -0.1407 0.9640 0.2257
vn -0.2048 0.9670 0.1514
vn 0.0000 0.9477 0.3193
vn -0.0835 0.9703 0.2272
vn -0.0759 0.9688 0.2358
vn 0.3432 0.9393 -0.0000
vn 0.4876 0.8483 0.2064
vn 0.0948 0.9887 -0.1162
vn 0.2911 0.9496 0.1162
vn -0.0963 0.9891 -0.1118
vn -0.3411 0.9207 0.1894
vn -0.4820 0.8762 -0.0000
vn -0.2051 0.9587 0.1973
vn -0.0894 0.9862 -0.1392
vn 0.2040 0.9589 0.1973
vn 0.0000 0.9902 -0.1398
vn 0.4984 0.8670 -0.0000
vn 0.4095 0.9033 -0.1275
vn 0.2931 0.9561 -0.0000
vn -0.0969 0.9953 -0.0000
vn -0.4809 0.8720 -0.0914
vn -0.4189 0.9081 -0.0000
vn -0.1967 0.9760 -0.0931
vn -0.1964 0.9761 -0.0927
vn -0.2036 0.9738 -0.1015
vn -0.2040 0.9736 -0.1020
vn 0.1990 0.9767 -0.0804
vn 0.1882 0.9777 -0.0929
vn 0.0000 0.9966 -0.0820
vn 0.4127 0.9108 0.0000
vn 0.3561 0.9313 -0.0766
vn 0.2793 0.9111 0.3031
vn -0.0859 0.9900 -0.1122
vn -0.0948 0.9741 0.2054
vn 0.0000 0.9508 0.3097
vn -0.2640 0.9438 0.1990
vn -0.2035 0.9715 0.1218
vn -0.3041 0.9526 -0.0000
vn 0.1784 0.9303 0.3205
vn 0.0000 0.9922 0.1244
vn 0.0000 0.9760 0.2177
vn 0.0986 0.9409 0.3241
vn 0.3573 0.9340 -0.0000
vn 0.4893 0.8512 0.1898
vn -0.0849 0.9882 0.1272
vn -0.1926 0.9813 -0.0000
vn 0.0000 0.9918 0.1277
vn -0.2599 0.9345 -0.2432
vn 0.0549 0.9903 0.1275
vn -0.2979 0.9231 -0.2431
vn -0.2981 0.9230 -0.2432
vn -0.2961 0.9243 -0.2407
vn -0.2960 0.9244 -0.2406
vn 0.0000 0.9670 -0.2548
vn 0.1090 0.9940 -0.0000
vn -0.1090 0.9612 -0.2533
vn -0.1872 0.9579 -0.2175
vn 0.0000 0.9752 -0.2214
vn 0.0536 0.9854 -0.1617
vn -0.2690 0.8504 -0.4521
vn 0.0000 0.9868 -0.1620
vn 0.0000 0.8830 -0.4694
vn -0.0986 0.8276 -0.5526
vn 0.0000 0.8316 -0.5553
vn 0.0000 0.0000 1.0000
vn 0.0000 -0.0495 0.9988
vn -0.0240 0.0000 0.9997
vn 0.0204 -0.0495 0.9986
vn 1.0000 0.0000 0.0000
vn 0.0000 0.0000 -1.0000
vn -1.0000 0.0000 0.0000
vn -0.9993 0.0387 0.0000
vn -0.9997 0.0000 0.0230
vn -0.9991 0.0387 -0.0185
usemtl Material.001
s 1
f 129/1/1 130/2/1 10/3/1
f 10/3/1 156/4/1 129/1/1
f 156/4/1 10/3/1 11/5/1
f 11/5/1 155/6/1 156/4/1
f 155/6/1 11/5/1 12/7/1
f 12/7/1 154/8/1 155/6/1
f 154/8/1 12/7/1 13/9/1
f 13/9/1 153/10/1 154/8/1
f 153/10/1 13/9/1 14/11/1
f 14/11/1 152/12/1 153/10/1
f 152/12/1 14/11/1 15/13/1
f 15/13/1 151/14/1 152/12/1
f 151/14/1 15/13/1 149/15/1
f 149/15/1 150/16/1 151/14/1
f 130/2/1 131/17/1 18/18/1
f 18/18/1 10/3/1 130/2/1
f 10/3/1 18/18/1 19/19/1
f 19/19/1 11/5/1 10/3/1
f 11/5/1 19/19/1 20/20/1
f 20/20/1 12/7/1 11/5/1
f 12/7/1 20/20/1 21/21/1
f 21/21/1 13/9/1 12/7/1
f 13/9/1 21/21/1 22/22/1
f 22/22/1 14/11/1 13/9/1
f 14/11/1 22/22/1 23/23/1
f 23/23/1 15/13/1 14/11/1
f 15/13/1 23/23/1 148/24/1
f 148/24/1 149/15/1 15/13/1
f 131/17/1 132/25/1 26/26/1
f 26/26/1 18/18/1 131/17/1
f 18/18/1 26/26/1 27/27/1
f 27/27/1 19/19/1 18/18/1
f 19/19/1 27/27/1 28/28/1
f 28/28/1 20/20/1 19/19/1
f 20/20/1 28/28/1 29/29/1
f 29/29/1 21/21/1 20/20/1
f 21/21/1 29/29/1 30/30/1
f 30/30/1 22/22/1 21/21/1
f 22/22/1 30/30/1 31/31/1
f 31/31/1 23/23/1 22/22/1
f 23/23/1 31/31/1 147/32/1
f 147/32/1 148/24/1 23/23/1
f 132/25/1 133/33/1 34/34/1
f 34/34/1 26/26/1 132/25/1
f 26/26/1 34/34/1 35/35/1
f 35/35/1 27/27/1 26/26/1
f 27/27/1 35/35/1 36/36/1
f 36/36/1 28/28/1 27/27/1
f 28/28/1 36/36/1 37/37/1
f 37/37/1 29/29/1 28/28/1
f 29/29/1 37/37/1 38/38/1
f 38/38/1 30/30/1 29/29/1
f 30/30/1 38/38/1 39/39/1
f 39/39/1 31/31/1 30/30/1
f 31/31/1 39/39/1 146/40/1
f 146/40/1 147/32/1 31/31/1
f 133/33/1 134/41/1 42/42/1
f 42/42/1 34/34/1 133/33/1
f 34/34/1 42/42/1 43/43/1
f 43/43/1 35/35/1 34/34/1
f 35/35/1 43/43/1 44/44/1
f 44/44/1 36/36/1 35/35/1
f 36/36/1 44/44/1 45/45/1
f 45/45/1 37/37/1 36/36/1
f 37/37/1 45/45/1 46/46/1
f 46/46/1 38/38/1 37/37/1
f 38/38/1 46/46/1 47/47/1
f 47/47/1 39/39/1 38/38/1
f 39/39/1 47/47/1 145/48/1
f 145/48/1 146/40/1 39/39/1
f 134/41/1 135/49/1 50/50/1
f 50/50/1 42/42/1 134/41/1
f 42/42/1 50/50/1 51/51/1
f 51/51/1 43/43/1 42/42/1
f 43/43/1 51/51/1 52/52/1
f 52/52/1 44/44/1 43/43/1
f 44/44/1 52/52/1 53/53/1
f 53/53/1 45/45/1 44/44/1
f 45/45/1 53/53/1 54/54/1
f 54/54/1 46/46/1 45/45/1
f 46/46/1 54/54/1 55/55/1
f 55/55/1 47/47/1 46/46/1
f 47/47/1 55/55/1 144/56/1
f 144/56/1 145/48/1 47/47/1
f 135/49/1 136/57/1 137/58/1
f 137/58/1 50/50/1 135/49/1
f 50/50/1 137/58/1 138/59/1
f 138/59/1 51/51/1 50/50/1
f 51/51/1 138/59/1 139/60/1
f 139/60/1 52/52/1 51/51/1
f 52/52/1 139/60/1 140/61/1
f 140/61/1 53/53/1 52/52/1
f 53/53/1 140/61/1 141/62/1
f 141/62/1 54/54/1 53/53/1
f 54/54/1 141/62/1 142/63/1
f 142/63/1 55/55/1 54/54/1
f 55/55/1 142/63/1 143/64/1
f 143/64/1 144/56/1 55/55/1
f 65/65/2 66/66/2 74/67/2
f 74/67/3 73/68/3 65/65/3
f 66/66/2 67/69/2 75/70/4
f 75/70/4 74/67/2 66/66/2
f 67/69/2 68/71/2 76/72/2
f 76/72/2 75/70/4 67/69/2
f 68/71/5 69/73/5 77/74/5
f 77/74/6 76/72/6 68/71/6
f 69/73/7 70/75/7 78/76/7
f 78/76/7 77/74/7 69/73/7
f 70/75/8 71/77/8 79/78/8
f 79/78/9 78/76/10 70/75/5
f 71/77/11 72/79/11 80/80/11
f 80/80/12 79/78/12 71/77/12
f 73/68/13 74/67/13 82/81/13
f 82/81/14 81/82/14 73/68/14
f 74/67/15 75/70/15 83/83/15
f 83/83/15 82/81/15 74/67/15
f 75/70/4 76/72/2 84/84/16
f 84/84/17 83/83/17 75/70/17
f 76/72/18 77/74/18 85/85/18
f 85/85/19 84/84/19 76/72/19
f 77/74/20 78/76/20 86/86/20
f 86/86/21 85/85/21 77/74/21
f 78/76/10 79/78/9 87/87/22
f 87/87/20 86/86/20 78/76/20
f 79/78/23 80/80/23 88/88/23
f 88/88/24 87/87/24 79/78/24
f 81/82/25 82/81/25 90/89/25
f 90/89/26 89/90/26 81/82/26
f 82/81/11 83/83/11 91/91/11
f 91/91/27 90/89/27 82/81/27
f 83/83/28 84/84/28 92/92/28
f 92/92/29 91/91/29 83/83/29
f 84/84/30 85/85/30 93/93/30
f 93/93/30 92/92/30 84/84/30
f 85/85/31 86/86/31 94/94/31
f 94/94/32 93/93/32 85/85/32
f 86/86/33 87/87/33 95/95/33
f 95/95/33 94/94/33 86/86/33
f 87/87/34 88/88/34 96/96/34
f 96/96/35 95/95/35 87/87/35
f 89/90/36 90/89/36 98/97/36
f 98/97/36 97/98/36 89/90/36
f 90/89/37 91/91/37 99/99/37
f 99/99/37 98/97/37 90/89/37
f 91/91/38 92/92/38 100/100/38
f 100/100/39 99/99/39 91/91/39
f 92/92/40 93/93/41 101/101/42
f 101/101/42 100/100/43 92/92/40
f 93/93/44 94/94/44 102/102/44
f 102/102/45 101/101/45 93/93/45
f 94/94/46 95/95/46 103/103/46
f 103/103/46 102/102/46 94/94/46
f 95/95/47 96/96/47 104/104/47
f 104/104/48 103/103/48 95/95/48
f 97/98/49 98/97/49 106/105/49
f 106/105/50 105/106/50 97/98/50
f 98/97/51 99/99/51 107/107/51
f 107/107/52 106/105/52 98/97/52
f 99/99/39 100/100/39 108/108/39
f 108/108/53 107/107/53 99/99/53
f 100/100/54 101/101/54 109/109/54
f 109/109/55 108/108/55 100/100/55
f 101/101/56 102/102/56 110/110/56
f 110/110/57 109/109/57 101/101/57
f 102/102/58 103/103/58 111/111/58
f 111/111/59 110/110/59 102/102/59
f 103/103/60 104/104/60 112/112/60
f 112/112/61 111/111/61 103/103/61
f 105/106/62 106/105/62 114/113/62
f 114/113/63 113/114/63 105/106/63
f 106/105/64 107/107/64 115/115/64
f 115/115/64 114/113/64 106/105/64
f 107/107/65 108/108/65 116/116/65
f 116/116/66 115/115/66 107/107/66
f 108/108/67 109/109/68 117/117/69
f 117/117/69 116/116/70 108/108/67
f 109/109/71 110/110/71 118/118/71
f 118/118/71 117/117/71 109/109/71
f 110/110/72 111/111/72 119/119/72
f 119/119/73 118/118/73 110/110/73
f 111/111/34 112/112/34 120/120/34
f 120/120/34 119/119/34 111/111/34
f 113/114/74 114/113/74 122/121/74
f 122/121/11 121/122/11 113/114/11
f 114/113/75 115/115/75 123/123/75
f 123/123/75 122/121/75 114/113/75
f 115/115/76 116/116/76 124/124/76
f 124/124/75 123/123/75 115/115/75
f 116/116/77 117/117/77 125/125/77
f 125/125/78 124/124/78 116/116/78
f 117/117/79 118/118/79 126/126/79
f 126/126/79 125/125/79 117/117/79
f 118/118/80 119/119/80 127/127/80
f 127/127/79 126/126/79 118/118/79
f 119/119/34 120/120/34 128/128/34
f 128/128/81 127/127/81 119/119/81
f 1/129/82 2/130/82 66/66/82
f 66/66/82 65/65/82 1/129/82
f 2/130/82 3/131/82 67/69/82
f 67/69/82 66/66/82 2/130/82
f 3/131/82 4/132/82 68/71/82
f 68/71/82 67/69/82 3/131/82
f 4/132/83 5/133/83 69/73/83
f 69/73/84 68/71/84 4/132/84
f 5/133/83 6/134/83 70/75/83
f 70/75/83 69/73/83 5/133/83
f 6/134/82 7/135/82 71/77/82
f 71/77/85 70/75/85 6/134/85
f 7/135/82 8/136/82 72/79/82
f 72/79/82 71/77/82 7/135/82
f 8/136/86 16/137/86 80/80/86
f 80/80/86 72/79/86 8/136/86
f 16/137/86 24/138/86 88/88/86
f 88/88/86 80/80/86 16/137/86
f 24/138/86 32/139/86 96/96/86
f 96/96/86 88/88/86 24/138/86
f 32/139/86 40/140/86 104/104/86
f 104/104/86 96/96/86 32/139/86
f 40/140/86 48/141/86 112/112/86
f 112/112/86 104/104/86 40/140/86
f 48/141/86 56/142/86 120/120/86
f 120/120/86 112/112/86 48/141/86
f 56/142/86 64/143/86 128/128/86
f 128/128/86 120/120/86 56/142/86
f 64/143/87 63/144/87 127/127/87
f 127/127/87 128/128/87 64/143/87
f 63/144/87 62/145/87 126/126/87
f 126/126/87 127/127/87 63/144/87
f 62/145/87 61/146/87 125/125/87
f 125/125/87 126/126/87 62/145/87
f 61/146/87 60/147/87 124/124/87
f 124/124/87 125/125/87 61/146/87
f 60/147/87 59/148/87 123/123/87
f 123/123/87 124/124/87 60/147/87
f 59/148/87 58/149/87 122/121/87
f 122/121/87 123/123/87 59/148/87
f 58/149/87 57/150/87 121/122/87
f 121/122/87 122/121/87 58/149/87
f 57/150/88 49/151/88 113/114/88
f 113/114/88 121/122/88 57/150/88
f 49/151/88 41/152/88 105/106/88
f 105/106/88 113/114/88 49/151/88
f 41/152/89 33/153/89 97/98/89
f 97/98/90 105/106/90 41/152/90
f 33/153/89 25/154/89 89/90/89
f 89/90/89 97/98/89 33/153/89
f 25/154/88 17/155/88 81/82/88
f 81/82/91 89/90/91 25/154/91
f 17/155/88 9/156/88 73/68/88
f 73/68/88 81/82/88 17/155/88
f 9/156/88 1/129/88 65/65/88
f 65/65/88 73/68/88 9/156/88
f 1/157/88 9/158/88 130/2/88
f 130/2/88 129/1/88 1/157/88
f 9/158/88 17/159/88 131/17/88
f 131/17/88 130/2/88 9/158/88
f 17/159/88 25/160/88 132/25/88
f 132/25/88 131/17/88 17/159/88
f 25/160/88 33/161/88 133/33/88
f 133/33/88 132/25/88 25/160/88
f 33/161/88 41/162/88 134/41/88
f 134/41/88 133/33/88 33/161/88
f 41/162/88 49/163/88 135/49/88
f 135/49/88 134/41/88 41/162/88
f 49/163/88 57/164/88 136/57/88
f 136/57/88 135/49/88 49/163/88
f 57/164/87 58/165/87 137/58/87
f 137/58/87 136/57/87 57/164/87
f 58/165/87 59/166/87 138/59/87
f 138/59/87 137/58/87 58/165/87
f 59/166/87 60/167/87 139/60/87
f 139/60/87 138/59/87 59/166/87
f 60/167/87 61/168/87 140/61/87
f 140/61/87 139/60/87 60/167/87
f 61/168/87 62/169/87 141/62/87
f 141/62/87 140/61/87 61/168/87
f 62/169/87 63/170/87 142/63/87
f 142/63/87 141/62/87 62/169/87
f 63/170/87 64/171/87 143/64/87
f 143/64/87 142/63/87 63/170/87
f 64/171/86 56/172/86 144/56/86
f 144/56/86 143/64/86 64/171/86
f 56/172/86 48/173/86 145/48/86
f 145/48/86 144/56/86 56/172/86
f 48/173/86 40/174/86 146/40/86
f 146/40/86 145/48/86 48/173/86
f 40/174/86 32/175/86 147/32/86
f 147/32/86 146/40/86 40/174/86
f 32/175/86 24/176/86 148/24/86
f 148/24/86 147/32/86 32/175/86
f 24/176/86 16/177/86 149/15/86
f 149/15/86 148/24/86 24/176/86
f 16/177/86 8/178/86 150/16/86
f 150/16/86 149/15/86 16/177/86
f 8/178/82 7/179/82 151/14/82
f 151/14/82 150/16/82 8/178/82
f 7/179/82 6/180/82 152/12/82
f 152/12/82 151/14/82 7/179/82
f 6/180/82 5/181/82 153/10/82
f 153/10/82 152/12/82 6/180/82
f 5/181/82 4/182/82 154/8/82
f 154/8/82 153/10/82 5/181/82
f 4/182/82 3/183/82 155/6/82
f 155/6/82 154/8/82 4/182/82
f 3/183/82 2/184/82 156/4/82
f 156/4/82 155/6/82 3/183/82
f 2/184/82 1/157/82 129/1/82
f 129/1/82 156/4/82 2/184/82
