# Blender v2.91.2 OBJ File: ''
# www.blender.org
mtllib astronaut.mtl
o Player.001_Cube.002
v 3.858800 0.081394 -0.572714
v 3.858800 0.081394 -0.525051
v 3.908477 0.045302 -0.572714
v 3.908477 0.045302 -0.525051
v 3.889502 -0.013097 -0.572714
v 3.889502 -0.013097 -0.525051
v 3.828097 -0.013097 -0.572714
v 3.828097 -0.013097 -0.525051
v 3.809123 0.045302 -0.572714
v 3.809123 0.045302 -0.525051
v 3.858800 0.061088 -0.604379
v 3.889164 0.039027 -0.604379
v 3.877566 0.003331 -0.604379
v 3.840033 0.003331 -0.604379
v 3.828435 0.039027 -0.604379
v 3.821363 0.124800 -0.536502
v 3.822688 0.205805 -0.537827
v 3.821363 0.124800 -0.540658
v 3.822688 0.205805 -0.539334
v 3.825519 0.124800 -0.536502
v 3.824195 0.205805 -0.537827
v 3.825519 0.124800 -0.540658
v 3.824195 0.205805 -0.539334
v 3.803296 0.126701 -0.534998
v 3.805578 0.266320 -0.537281
v 3.803296 0.126701 -0.542162
v 3.805578 0.266320 -0.539879
v 3.810459 0.126701 -0.534998
v 3.808176 0.266320 -0.537281
v 3.810459 0.126701 -0.542162
v 3.808176 0.266320 -0.539879
v 3.783056 0.091641 -0.498226
v 3.783056 0.131836 -0.498226
v 3.783056 0.091641 -0.553694
v 3.783056 0.131836 -0.553694
v 3.934543 0.091641 -0.498226
v 3.934543 0.131836 -0.498226
v 3.934543 0.091641 -0.553694
v 3.934543 0.131836 -0.553694
v 3.776380 -0.046778 -0.489728
v 3.776380 0.101540 -0.489728
v 3.776380 -0.046778 -0.562192
v 3.776380 0.101540 -0.562192
v 3.941220 -0.046778 -0.489728
v 3.941220 0.101540 -0.489728
v 3.941220 -0.046778 -0.562192
v 3.941220 0.101540 -0.562192
v 3.794399 0.091641 -0.498226
v 3.794399 0.131836 -0.553694
v 3.794399 0.131836 -0.498226
v 3.794399 0.091641 -0.553694
v 3.834609 0.091641 -0.498226
v 3.834609 0.131836 -0.498226
v 3.834609 0.091641 -0.553694
v 3.834609 0.131836 -0.553694
v 3.783056 0.131836 -0.522114
v 3.783056 0.091641 -0.522114
v 3.934543 0.131836 -0.522114
v 3.934543 0.091641 -0.522114
v 3.834609 0.131836 -0.522114
v 3.794399 0.131836 -0.522114
v 3.794399 0.142542 -0.553694
v 3.834609 0.142542 -0.553694
v 3.834609 0.142542 -0.522114
v 3.794399 0.142542 -0.522114
v 3.926356 -0.005093 -0.507269
v 3.926356 0.070049 -0.507269
v 3.926356 -0.005093 -0.543342
v 3.926356 0.070049 -0.543342
v 3.962429 0.005947 -0.512569
v 3.962429 0.059009 -0.512569
v 3.962429 0.005947 -0.538042
v 3.962429 0.059009 -0.538042
v 3.755171 0.005946 -0.538042
v 3.755171 0.059008 -0.538042
v 3.755171 0.005946 -0.512569
v 3.755171 0.059008 -0.512569
v 3.791243 -0.005094 -0.543342
v 3.791243 0.070049 -0.543342
v 3.791243 -0.005094 -0.507269
v 3.791243 0.070049 -0.507269
v 4.028456 0.029135 -0.440051
v 4.014609 0.025119 -0.395244
v 3.960587 0.035706 -0.392338
v 3.966798 0.040670 -0.469079
v 3.934233 -0.065269 -0.374273
v 3.950292 0.122118 -0.374189
v 3.934066 -0.072336 -0.485295
v 3.949782 0.129450 -0.485303
v 3.982274 0.096831 -0.384835
v 3.988724 0.102042 -0.465418
v 3.947358 0.039893 -0.482727
v 3.947640 0.036569 -0.376764
v 4.026537 0.062329 -0.387521
v 4.040944 0.066534 -0.434155
v 4.072627 0.051858 -0.423637
v 4.057945 0.047733 -0.378316
v 4.060690 0.015895 -0.429341
v 4.046713 0.011968 -0.386196
v 3.935344 -0.129750 -0.383082
v 3.935344 -0.138200 -0.466709
v 3.868212 -0.128591 -0.374099
v 3.868212 -0.138636 -0.476478
v 3.936564 -0.204291 -0.399491
v 3.936564 -0.199410 -0.456044
v 3.884157 -0.205899 -0.397440
v 3.884157 -0.197836 -0.459375
v 3.689144 0.029135 -0.440051
v 3.702990 0.025119 -0.395244
v 3.757012 0.035706 -0.392338
v 3.750802 0.040670 -0.469079
v 3.783366 -0.065269 -0.374273
v 3.767308 0.122118 -0.374189
v 3.783534 -0.072336 -0.485295
v 3.767817 0.129450 -0.485303
v 3.858800 0.130013 -0.492492
v 3.858800 -0.077786 -0.492364
v 3.858800 0.124197 -0.355489
v 3.858800 -0.075421 -0.361970
v 3.735326 0.096831 -0.384835
v 3.728876 0.102042 -0.465418
v 3.770242 0.039893 -0.482727
v 3.769959 0.036569 -0.376764
v 3.858800 0.037141 -0.351271
v 3.858800 0.035494 -0.492492
v 3.691062 0.062329 -0.387521
v 3.676655 0.066534 -0.434155
v 3.644972 0.051858 -0.423637
v 3.659655 0.047733 -0.378316
v 3.656909 0.015895 -0.429341
v 3.670886 0.011968 -0.386196
v 3.782255 -0.129750 -0.383082
v 3.782255 -0.138200 -0.466709
v 3.849387 -0.128591 -0.374099
v 3.849387 -0.138636 -0.476478
v 3.781035 -0.204291 -0.399491
v 3.781036 -0.199410 -0.456044
v 3.833443 -0.205899 -0.397440
v 3.833443 -0.197836 -0.459375
v 3.858062 0.092579 -0.462651
v 3.925355 0.132430 -0.355184
v 3.792141 0.132697 -0.354353
v 3.750373 0.170045 -0.475462
v 3.858474 0.203611 -0.525494
v 3.965919 0.169613 -0.476806
v 3.751113 0.257774 -0.375913
v 3.791677 0.294957 -0.497535
v 3.924890 0.294691 -0.498367
v 3.966658 0.257343 -0.377257
v 3.858970 0.334809 -0.390068
v 3.919831 0.140134 -0.355728
v 3.797699 0.140379 -0.354965
v 3.957698 0.254656 -0.375964
v 3.859230 0.233738 -0.306580
v 3.760083 0.255051 -0.374732
v 3.858968 0.325678 -0.387710
v 3.776380 0.101540 -0.562192
v 3.776380 -0.046778 -0.562192
v 3.941220 0.101540 -0.562192
v 3.941220 -0.046778 -0.562192
vt 0.051277 0.911098
vt 0.000374 0.911098
vt 0.000000 0.858042
vt 0.050903 0.858042
vt 0.740416 0.894352
vt 0.740416 0.945254
vt 0.676580 0.945072
vt 0.676580 0.894170
vt 0.676580 0.895194
vt 0.676580 0.945963
vt 0.610998 0.945963
vt 0.610998 0.895194
vt 0.145922 0.913912
vt 0.145922 0.863009
vt 0.209752 0.862846
vt 0.209752 0.913748
vt 0.050903 0.964156
vt 0.000000 0.964156
vt 0.623746 0.860182
vt 0.663832 0.860182
vt 0.201373 0.947783
vt 0.162358 0.947883
vt 0.693009 0.860182
vt 0.732029 0.860293
vt 0.084884 0.911099
vt 0.084656 0.943530
vt 0.084656 0.878669
vt 0.271350 0.875302
vt 0.271350 0.915360
vt 0.233280 0.927661
vt 0.209752 0.895205
vt 0.233280 0.862846
vt 0.743347 0.946286
vt 0.741738 0.946286
vt 0.740416 0.860182
vt 0.744855 0.860182
vt 0.142265 0.858042
vt 0.143875 0.858042
vt 0.145295 0.944278
vt 0.140857 0.944278
vt 0.746165 0.860182
vt 0.747775 0.860182
vt 0.749293 0.946282
vt 0.744855 0.946282
vt 0.597145 0.815755
vt 0.598755 0.815755
vt 0.600176 0.902124
vt 0.595737 0.902124
vt 0.394190 0.407099
vt 0.392580 0.407099
vt 0.392580 0.405489
vt 0.394190 0.405489
vt 0.974252 0.832528
vt 0.971478 0.832528
vt 0.969200 0.684119
vt 0.976850 0.684119
vt 0.971189 0.378850
vt 0.968415 0.378850
vt 0.965966 0.230214
vt 0.973616 0.230214
vt 0.975158 0.573789
vt 0.972384 0.573789
vt 0.969767 0.425386
vt 0.977417 0.425386
vt 0.605400 0.964621
vt 0.602626 0.964621
vt 0.600176 0.815755
vt 0.607826 0.815755
vt 0.394190 0.405489
vt 0.391416 0.405489
vt 0.391416 0.402715
vt 0.394190 0.402715
vt 0.933275 0.646771
vt 0.933275 0.680498
vt 0.890491 0.680459
vt 0.890491 0.646732
vt 0.596416 0.709019
vt 0.596416 0.815752
vt 0.553579 0.815755
vt 0.553579 0.709022
vt 0.890491 0.654947
vt 0.890491 0.680458
vt 0.847709 0.680501
vt 0.847709 0.654990
vt 0.999786 0.149678
vt 0.999786 0.161793
vt 0.956898 0.161795
vt 0.956898 0.149681
vt 0.560113 0.979701
vt 0.593840 0.979701
vt 0.593840 0.991815
vt 0.560113 0.991815
vt 0.891811 0.842130
vt 0.969201 0.842061
vt 0.969201 0.999931
vt 0.891811 1.000000
vt 0.364212 0.402715
vt 0.364212 0.402715
vt 0.364212 0.402715
vt 0.364212 0.402715
vt 0.969200 0.842061
vt 0.891811 0.841983
vt 0.891811 0.684119
vt 0.969200 0.684197
vt 0.553579 0.653960
vt 0.553579 0.830013
vt 0.395323 0.830022
vt 0.395323 0.653969
vt 0.888779 0.230214
vt 0.965966 0.230214
vt 0.965966 0.406268
vt 0.888779 0.406268
vt 0.879508 0.000000
vt 0.956898 0.000000
vt 0.956898 0.176054
vt 0.879508 0.176054
vt 0.596416 0.653960
vt 0.596416 0.666074
vt 0.553579 0.666076
vt 0.553579 0.653962
vt 0.999786 0.000000
vt 0.999786 0.106733
vt 0.956898 0.106735
vt 0.956898 0.000002
vt 0.560113 0.830022
vt 0.593840 0.830022
vt 0.593840 0.936755
vt 0.560113 0.936755
vt 0.380020 0.549450
vt 0.380020 0.515723
vt 0.391416 0.515733
vt 0.391416 0.549460
vt 0.534601 0.936755
vt 0.534601 0.979701
vt 0.534601 0.830022
vt 0.534601 0.991815
vt 0.890491 0.621221
vt 0.847709 0.621264
vt 0.933275 0.621259
vt 0.890491 0.621221
vt 0.967002 0.664166
vt 0.933275 0.664166
vt 0.933275 0.621221
vt 0.967002 0.621221
vt 0.364212 0.558669
vt 0.364212 0.515724
vt 0.375637 0.515723
vt 0.375637 0.558669
vt 0.380020 0.583198
vt 0.380020 0.549471
vt 0.391416 0.549460
vt 0.391416 0.583186
vt 0.607826 0.666073
vt 0.607826 0.709019
vt 0.884637 0.959661
vt 0.846115 0.947522
vt 0.846115 0.890972
vt 0.884637 0.879579
vt 0.391416 0.459219
vt 0.364212 0.459192
vt 0.364212 0.402715
vt 0.391416 0.402742
vt 0.372616 0.942555
vt 0.334082 0.954582
vt 0.334082 0.874404
vt 0.372616 0.885938
vt 0.956456 0.214581
vt 0.918032 0.214581
vt 0.922816 0.176054
vt 0.949948 0.176054
vt 0.885054 0.176054
vt 0.912258 0.176054
vt 0.918033 0.214580
vt 0.879508 0.214580
vt 0.391416 0.515699
vt 0.364212 0.515723
vt 0.364212 0.459244
vt 0.391416 0.459219
vt 0.846115 0.959661
vt 0.807584 0.948264
vt 0.807584 0.891714
vt 0.846115 0.879579
vt 0.091392 0.924644
vt 0.118525 0.924644
vt 0.123308 0.963171
vt 0.084884 0.963171
vt 0.867602 0.409149
vt 0.829078 0.409149
vt 0.834852 0.370622
vt 0.862056 0.370622
vt 0.769065 0.891109
vt 0.807584 0.879579
vt 0.807584 0.959757
vt 0.769065 0.947726
vt 0.130603 0.528252
vt 0.012185 0.537070
vt 0.020566 0.502144
vt 0.105871 0.488488
vt 0.135009 0.203616
vt 0.179162 0.119887
vt 0.275207 0.192269
vt 0.239331 0.264394
vt 0.847709 0.684110
vt 0.734487 0.683218
vt 0.729355 0.573729
vt 0.847709 0.563450
vt 0.189720 0.102023
vt 0.145215 0.048996
vt 0.207870 0.020984
vt 0.235239 0.052360
vt 0.598364 0.293246
vt 0.608620 0.212662
vt 0.665920 0.222728
vt 0.667579 0.294441
vt 0.374755 0.860532
vt 0.292642 0.853680
vt 0.324638 0.787913
vt 0.372639 0.802829
vt 0.145922 0.624517
vt 0.000000 0.636055
vt 0.019343 0.454819
vt 0.067823 0.435550
vt 0.489820 0.307574
vt 0.488014 0.212654
vt 0.239052 0.000000
vt 0.265407 0.030103
vt 0.398418 0.310408
vt 0.491472 0.321424
vt 0.425899 0.344579
vt 0.395323 0.212666
vt 0.391239 0.874404
vt 0.278110 0.874404
vt 0.097842 0.069510
vt 0.047971 0.152908
vt 0.502904 0.379124
vt 0.462839 0.391855
vt 0.829077 0.372177
vt 0.829077 0.420728
vt 0.789288 0.416842
vt 0.789288 0.370622
vt 0.006748 0.422166
vt 0.053807 0.402715
vt 0.516512 0.413399
vt 0.477981 0.425386
vt 0.337172 0.753519
vt 0.383396 0.768570
vt 0.749504 0.239786
vt 0.747884 0.295761
vt 0.737090 0.504998
vt 0.826159 0.493940
vt 0.337662 0.227095
vt 0.301379 0.288927
vt 0.411051 0.904533
vt 0.520554 0.913247
vt 0.534601 0.970424
vt 0.395323 0.970424
vt 0.140857 0.858042
vt 0.140857 0.924644
vt 0.084884 0.920973
vt 0.084884 0.860353
vt 0.395323 0.259192
vt 0.365495 0.306590
vt 0.752680 0.425386
vt 0.813185 0.429182
vt 0.428020 0.839799
vt 0.494007 0.830022
vt 0.145922 0.721993
vt 0.127747 0.765151
vt 0.041356 0.765071
vt 0.027590 0.731895
vt 0.194266 0.331181
vt 0.083927 0.283331
vt 0.729355 0.425386
vt 0.729355 0.546044
vt 0.610998 0.535770
vt 0.616132 0.426283
vt 0.073579 0.301346
vt 0.052792 0.365479
vt 0.011992 0.357153
vt 0.005495 0.288786
vt 0.598364 0.132115
vt 0.667579 0.130936
vt 0.665920 0.202623
vt 0.294594 0.739647
vt 0.296710 0.681943
vt 0.344710 0.667027
vt 0.376706 0.732795
vt 0.098492 0.823412
vt 0.047586 0.812002
vt 0.489820 0.117806
vt 0.048295 0.402715
vt 0.009103 0.394643
vt 0.398418 0.114975
vt 0.425899 0.080831
vt 0.491471 0.104000
vt 0.278110 0.753519
vt 0.391239 0.753519
vt 0.000000 0.237429
vt 0.462839 0.033558
vt 0.502903 0.046306
vt 0.789287 0.419192
vt 0.749504 0.420744
vt 0.749504 0.374506
vt 0.789287 0.370622
vt 0.089810 0.858042
vt 0.040279 0.846229
vt 0.477980 0.000000
vt 0.516511 0.012005
vt 0.285953 0.647684
vt 0.332177 0.632632
vt 0.747884 0.129652
vt 0.749504 0.185622
vt 0.707816 0.615558
vt 0.618744 0.604503
vt 0.291257 0.306298
vt 0.255346 0.368367
vt 0.873057 0.304729
vt 0.888779 0.370622
vt 0.749504 0.370622
vt 0.763557 0.313443
vt 0.334082 0.941006
vt 0.278110 0.938695
vt 0.278110 0.878075
vt 0.334082 0.874404
vt 0.338226 0.353389
vt 0.311696 0.402715
vt 0.694854 0.680320
vt 0.634349 0.684119
vt 0.790115 0.230214
vt 0.856103 0.239990
vt 0.257716 0.747524
vt 0.145923 0.818718
vt 0.145922 0.676440
vt 0.278110 0.862846
vt 0.278110 0.632632
vt 0.364212 0.447155
vt 0.364212 0.589253
vt 0.264588 0.518841
vt 0.229302 0.402715
vt 0.969767 0.621221
vt 0.849406 0.557021
vt 0.969767 0.482663
vt 0.610998 0.607529
vt 0.477704 0.653960
vt 0.480948 0.644507
vt 0.603154 0.601939
vt 0.771756 0.748046
vt 0.891811 0.684119
vt 0.891811 0.822729
vt 0.229301 0.632632
vt 0.145922 0.517347
vt 0.395323 0.541388
vt 0.477703 0.425386
vt 0.480947 0.434948
vt 0.405420 0.541300
vt 0.610998 0.466263
vt 0.603154 0.472424
vt 0.769065 0.879579
vt 0.847709 0.425386
vt 0.749505 0.044133
vt 0.879508 0.000000
vt 0.864309 0.115293
vt 0.749504 0.186412
vt 0.879508 0.230214
vt 0.526490 0.547036
vt 0.769065 0.684119
vt 0.769065 0.860173
vt 0.610998 0.860182
vt 0.610998 0.684128
vt 0.364212 0.402715
vt 0.364212 0.402715
vt 0.364212 0.402715
vt 0.364212 0.402715
vn 0.5878 0.8090 -0.0000
vn 0.9511 -0.3090 0.0000
vn -0.0000 -1.0000 0.0000
vn -0.9511 -0.3090 0.0000
vn -0.5878 0.8090 -0.0000
vn -0.0000 -0.8877 -0.4605
vn -0.8442 -0.2743 -0.4605
vn 0.8442 -0.2743 -0.4605
vn -0.5217 0.7181 -0.4605
vn 0.5217 0.7181 -0.4605
vn 0.0000 0.0000 -1.0000
vn -0.9999 0.0164 0.0000
vn 0.0000 0.0163 -0.9999
vn 0.9999 0.0163 0.0000
vn 0.0000 0.0163 0.9999
vn 0.0000 1.0000 0.0000
vn -0.9999 0.0163 0.0000
vn -1.0000 0.0000 0.0000
vn 1.0000 0.0000 0.0000
vn 0.0000 0.0000 1.0000
vn -0.1464 0.3535 -0.9239
vn 0.3535 0.1464 -0.9239
vn -0.3535 0.1464 -0.9239
vn -0.1464 -0.3535 -0.9239
vn 0.0000 -0.8288 -0.5595
vn 0.1454 0.0000 -0.9894
vn 0.1454 0.0000 0.9894
vn 0.2927 -0.9562 0.0000
vn 0.2927 0.9562 0.0000
vn -0.1454 0.0000 -0.9894
vn -0.2927 -0.9562 0.0000
vn -0.2927 0.9562 0.0000
vn -0.1454 0.0000 0.9894
vn 0.5889 0.8051 0.0709
vn 0.1019 0.0048 -0.9948
vn 0.9923 -0.1238 0.0001
vn 0.4446 -0.0685 -0.8931
vn 0.1556 -0.1596 0.9748
vn -0.1651 -0.9812 -0.0997
vn 0.0178 0.9984 0.0529
vn 0.5509 0.8208 0.1511
vn 0.2268 -0.0514 0.9726
vn 0.3303 0.0392 -0.9431
vn 0.4401 -0.1340 0.8879
vn 0.2381 0.0056 0.9712
vn -0.0054 -0.9990 -0.0455
vn 0.4727 -0.0699 -0.8785
vn 0.0943 -0.0152 -0.9954
vn -0.0121 -0.1490 0.9888
vn 0.9029 -0.3411 0.2615
vn 0.3613 0.9114 0.1969
vn -0.3155 -0.1016 0.9435
vn -0.3234 -0.9278 -0.1861
vn 0.0901 -0.2427 0.9659
vn 0.9998 0.0182 -0.0023
vn 0.9998 0.0180 -0.0005
vn 0.9998 0.0181 -0.0015
vn 0.1239 -0.2507 -0.9601
vn -0.9867 -0.1626 0.0087
vn 0.0017 -0.9941 -0.1086
vn 0.1046 -0.2093 -0.9722
vn -0.9738 -0.2276 0.0027
vn -0.5889 0.8051 0.0709
vn -0.1019 0.0048 -0.9948
vn -0.9923 -0.1238 0.0001
vn -0.4446 -0.0685 -0.8931
vn -0.1556 -0.1596 0.9748
vn 0.1651 -0.9812 -0.0997
vn -0.0178 0.9984 0.0529
vn -0.5509 0.8208 0.1511
vn -0.2268 -0.0514 0.9726
vn -0.3303 0.0392 -0.9431
vn -0.4401 -0.1340 0.8879
vn -0.2381 0.0056 0.9712
vn 0.0054 -0.9990 -0.0455
vn -0.4727 -0.0699 -0.8785
vn -0.0943 -0.0152 -0.9954
vn 0.0121 -0.1490 0.9888
vn -0.9029 -0.3412 0.2615
vn -0.3613 0.9114 0.1969
vn 0.3155 -0.1016 0.9435
vn 0.3234 -0.9278 -0.1861
vn -0.0901 -0.2427 0.9659
vn -0.9998 0.0182 -0.0023
vn -0.9998 0.0181 -0.0015
vn -0.9998 0.0180 -0.0006
vn -0.1239 -0.2507 -0.9601
vn 0.9867 -0.1626 0.0087
vn -0.0017 -0.9941 -0.1086
vn -0.1046 -0.2093 -0.9722
vn -0.9998 0.0180 -0.0005
vn 0.9738 -0.2276 0.0027
vn 0.0003 -0.9377 0.3475
vn 0.5752 -0.8160 -0.0576
vn -0.5792 -0.8136 -0.0512
vn -0.2428 -0.4771 -0.8446
vn 0.2316 -0.4798 -0.8462
vn 0.9354 -0.2687 0.2298
vn -0.0515 0.2498 0.9669
vn -0.9338 -0.2649 0.2404
vn -0.4137 -0.0240 -0.9101
vn 0.4063 -0.0242 -0.9134
vn 0.0064 0.0749 0.9972
vn 0.0646 0.2495 0.9662
vn -0.9354 0.2687 -0.2298
vn -0.0054 0.2891 -0.9573
vn 0.9338 0.2649 -0.2404
vn -0.0869 0.1415 0.9861
vn 0.0998 0.1410 0.9850
vn -0.5752 0.8160 0.0576
vn -0.0003 0.9377 -0.3475
vn 0.5792 0.8136 0.0512
vn 0.0046 -0.4625 0.8866
vn 0.5823 -0.0491 0.8115
vn -0.5727 -0.0468 0.8185
vn 0.3611 0.6176 0.6987
vn -0.3500 0.6192 0.7029
vn 0.3535 -0.1464 -0.9239
vn 0.1464 0.3535 -0.9239
usemtl Material.006
s 1
f 1/1/1 2/2/1 4/3/1 3/4/1
f 3/5/2 4/6/2 6/7/2 5/8/2
f 5/9/3 6/10/3 8/11/3 7/12/3
f 7/13/4 8/14/4 10/15/4 9/16/4
f 9/17/5 10/18/5 2/2/5 1/1/5
f 5/9/6 7/12/6 14/19/6 13/20/6
f 7/13/7 9/16/7 15/21/7 14/22/7
f 3/5/8 5/8/8 13/23/8 12/24/8
f 9/17/9 1/1/9 11/25/9 15/26/9
f 1/1/10 3/4/10 12/27/10 11/25/10
f 11/28/11 12/29/11 13/30/11 14/31/11 15/32/11
f 17/33/12 19/34/12 18/35/12 16/36/12
f 19/37/13 23/38/13 22/39/13 18/40/13
f 23/41/14 21/42/14 20/43/14 22/44/14
f 21/45/15 17/46/15 16/47/15 20/48/15
f 21/49/16 23/50/16 19/51/16 17/52/16
f 25/53/17 27/54/17 26/55/17 24/56/17
f 27/57/13 31/58/13 30/59/13 26/60/13
f 31/61/14 29/62/14 28/63/14 30/64/14
f 29/65/15 25/66/15 24/67/15 28/68/15
f 29/69/16 31/70/16 27/71/16 25/72/16
f 56/73/18 35/74/18 34/75/18 57/76/18
f 55/77/11 39/78/11 38/79/11 54/80/11
f 58/81/19 37/82/19 36/83/19 59/84/19
f 50/85/20 33/86/20 32/87/20 48/88/20
f 61/89/16 49/90/16 35/91/16 56/92/16
f 41/93/18 43/94/18 42/95/18 40/96/18
f 46/97/21 42/98/22 158/99/23 160/100/24
f 47/101/19 45/102/19 44/103/19 46/104/19
f 45/105/20 41/106/20 40/107/20 44/108/20
f 40/109/3 42/110/3 46/111/3 44/112/3
f 45/113/16 47/114/25 43/115/25 41/116/16
f 35/117/11 49/118/11 51/119/11 34/120/11
f 37/121/20 53/122/20 52/123/20 36/124/20
f 58/125/16 39/126/16 55/127/16 60/128/16
f 49/129/18 61/130/18 65/131/18 62/132/18
f 49/118/11 55/77/11 54/80/11 51/119/11
f 53/122/20 50/85/20 48/88/20 52/123/20
f 53/133/16 60/128/16 61/89/16 50/134/16
f 37/135/16 58/125/16 60/128/16 53/133/16
f 50/134/16 61/89/16 56/92/16 33/136/16
f 39/137/19 58/81/19 59/84/19 38/138/19
f 33/139/18 56/73/18 57/76/18 32/140/18
f 64/141/16 63/142/16 62/143/16 65/144/16
f 61/145/20 60/146/20 64/147/20 65/148/20
f 60/149/19 55/150/19 63/151/19 64/152/19
f 55/77/11 49/118/11 62/153/11 63/154/11
f 69/155/26 73/156/26 72/157/26 68/158/26
f 73/159/19 71/160/19 70/161/19 72/162/19
f 71/163/27 67/164/27 66/165/27 70/166/27
f 66/167/28 68/168/28 72/169/28 70/170/28
f 71/171/29 73/172/29 69/173/29 67/174/29
f 74/175/18 76/176/18 77/177/18 75/178/18
f 78/179/30 74/180/30 75/181/30 79/182/30
f 76/183/31 74/184/31 78/185/31 80/186/31
f 81/187/32 79/188/32 75/189/32 77/190/32
f 76/191/33 80/192/33 81/193/33 77/194/33
f 89/195/34 87/196/34 90/197/34 91/198/34
f 125/199/35 92/200/35 88/201/35 117/202/35
f 92/203/36 93/204/36 86/205/36 88/206/36
f 85/207/37 91/208/37 95/209/37 82/210/37
f 86/211/38 119/212/38 102/213/38 100/214/38
f 84/215/39 85/216/39 82/217/39 83/218/39
f 87/196/40 89/195/40 116/219/40 118/220/40
f 91/198/41 90/197/41 94/221/41 95/222/41
f 93/223/42 124/224/42 119/212/42 86/211/42
f 82/210/43 95/209/43 96/225/43 98/226/43
f 87/227/44 93/223/44 84/228/44 90/229/44
f 87/227/45 118/230/45 124/224/45 93/223/45
f 93/231/46 92/232/46 85/216/46 84/215/46
f 92/200/47 89/233/47 91/208/47 85/207/47
f 116/234/48 89/233/48 92/200/48 125/199/48
f 90/229/49 84/228/49 83/235/49 94/236/49
f 96/237/50 97/238/50 99/239/50 98/240/50
f 95/222/51 94/221/51 97/241/51 96/242/51
f 94/236/52 83/235/52 99/243/52 97/244/52
f 83/218/53 82/217/53 98/245/53 99/246/53
f 100/214/54 102/213/54 106/247/54 104/248/54
f 88/206/55 86/205/55 100/249/56 101/250/57
f 117/202/58 88/201/58 101/251/58 103/252/58
f 103/253/59 102/254/59 119/255/59 117/256/59
f 106/257/60 107/258/60 105/259/60 104/260/60
f 103/252/61 101/251/61 105/261/61 107/262/61
f 101/250/57 100/249/56 104/263/56 105/264/56
f 102/254/62 103/253/62 107/265/62 106/266/62
f 115/267/63 121/268/63 120/269/63 113/270/63
f 125/199/64 117/202/64 114/271/64 122/272/64
f 122/273/65 114/274/65 112/275/65 123/276/65
f 111/277/66 108/278/66 127/279/66 121/280/66
f 112/281/67 132/282/67 134/283/67 119/212/67
f 110/284/68 109/285/68 108/286/68 111/287/68
f 113/270/69 118/220/69 116/219/69 115/267/69
f 121/268/70 127/288/70 126/289/70 120/269/70
f 123/290/71 112/281/71 119/212/71 124/224/71
f 108/278/72 130/291/72 128/292/72 127/279/72
f 113/293/73 120/294/73 110/295/73 123/290/73
f 113/293/74 123/290/74 124/224/74 118/230/74
f 123/296/75 110/284/75 111/287/75 122/297/75
f 122/272/76 111/277/76 121/280/76 115/298/76
f 116/234/77 125/199/77 122/272/77 115/298/77
f 120/294/78 126/299/78 109/300/78 110/295/78
f 128/301/79 130/302/79 131/303/79 129/304/79
f 127/288/80 128/305/80 129/306/80 126/289/80
f 126/299/81 129/307/81 131/308/81 109/300/81
f 109/285/82 131/309/82 130/310/82 108/286/82
f 132/282/83 136/311/83 138/312/83 134/283/83
f 114/274/84 133/313/85 132/314/86 112/275/84
f 117/202/87 135/315/87 133/316/87 114/271/87
f 135/317/88 117/318/88 119/319/88 134/320/88
f 138/321/89 136/322/89 137/323/89 139/324/89
f 135/315/90 139/325/90 137/326/90 133/316/90
f 133/313/85 137/327/91 136/328/91 132/314/86
f 134/320/92 138/329/92 139/330/92 135/317/92
f 140/331/93 141/332/93 142/333/93
f 141/332/94 140/331/94 145/334/94
f 140/331/95 142/333/95 143/335/95
f 140/336/96 143/337/96 144/338/96
f 140/336/97 144/338/97 145/339/97
f 141/340/98 145/341/98 149/342/98
f 150/343/99 146/344/99 155/345/99 156/346/99
f 143/347/100 142/348/100 146/349/100
f 144/338/101 143/337/101 147/350/101
f 145/339/102 144/338/102 148/351/102
f 142/352/103 141/353/103 151/354/103 152/355/103
f 149/356/104 150/343/104 156/346/104 153/357/104
f 143/347/105 146/349/105 147/358/105
f 144/338/106 147/350/106 148/351/106
f 145/341/107 148/359/107 149/342/107
f 146/344/108 142/352/108 152/355/108 155/345/108
f 141/353/109 149/356/109 153/357/109 151/354/109
f 147/360/110 146/361/110 150/362/110
f 148/363/111 147/360/111 150/362/111
f 149/364/112 148/363/112 150/362/112
f 152/355/113 151/354/113 154/365/113
f 151/354/114 153/357/114 154/365/114
f 152/355/115 154/365/115 155/345/115
f 154/365/116 153/357/116 156/346/116
f 155/345/117 154/365/117 156/346/117
f 157/366/11 159/367/11 160/368/11 158/369/11
f 43/370/25 47/371/25 159/372/118 157/373/119
f 42/98/22 43/370/25 157/373/119 158/99/23
f 47/371/25 46/97/21 160/100/24 159/372/118
